{"title":"Muse - The Resistance 2009 FLAC","uid":5084929,"size":362429272,"categoryP":"audio","categoryS":"flac","magnet":"?xt=urn:btih:a23ce0cffa517e99f69ebc12076ae58cf7e45a7e&amp;dn=Muse+-+The+Resistance+2009+FLAC&amp;tr=udp%3A%2F%2Ftracker.openbittorrent.com%3A80&amp;tr=udp%3A%2F%2Fopen.demonii.com%3A1337&amp;tr=udp%3A%2F%2Ftracker.coppersurfer.tk%3A6969&amp;tr=udp%3A%2F%2Fexodus.desync.com%3A6969","seeders":1,"leechers":1,"uploader":"ap0lo","files":16,"time":1252638232,"description":"Downloaded from Demonoid.\nFinally, the FLAC from this amazing album.\n\n&quot;Muse / The resistance\n\nUsed drive  : HL-DT-STDVD-RAM GH10L   Adapter: 0  ID: 1\n\nRead mode               : Secure\nUtilize accurate stream : Yes\nDefeat audio cache      : Yes\nMake use of C2 pointers : No\n\nRead offset correction                      : 667\nOverread into Lead-In and Lead-Out          : No\nFill up missing offset samples with silence : Yes\nDelete leading and trailing silent blocks   : No\nNull samples used in CRC calculations       : Yes\nUsed interface                              : Native Win32 interface for Win NT &amp; 2000\nGap handling                                : Appended to previous track\n\nUsed output format              : User Defined Encoder\nSelected bitrate                : 896 kBit/s\nQuality                         : High\nAdd ID3 tag                     : No\nCommand line compressor         : C:Program FilesFLACflac.exe\nAdditional command line options : -V -8 -T &quot;artist=%a&quot; -T &quot;title=%t&quot; -T &quot;album=%g&quot; -T &quot;date=%y&quot; -T &quot;tracknumber=%n&quot; -T &quot;genre=%m&quot; %s\n\n\nTOC of the extracted CD\n\n     Track |   Start  |  Length  | Start sector | End sector \n    ---------------------------------------------------------\n        1  |  0:00.00 |  5:02.62 |         0    |    22711   \n        2  |  5:02.62 |  5:46.52 |     22712    |    48713   \n        3  | 10:49.39 |  3:56.04 |     48714    |    66417   \n        4  | 14:45.43 |  5:47.61 |     66418    |    92503   \n        5  | 20:33.29 |  4:13.34 |     92504    |   111512   \n        6  | 24:46.63 |  6:54.72 |    111513    |   142634   \n        7  | 31:41.60 |  4:06.07 |    142635    |   161091   \n        8  | 35:47.67 |  5:38.61 |    161092    |   186502   \n        9  | 41:26.53 |  4:18.33 |    186503    |   205885   \n       10  | 45:45.11 |  3:56.12 |    205886    |   223597   \n       11  | 49:41.23 |  4:37.02 |    223598    |   244374&quot;\n\nThe rest is in a txt file inside.\n\nEnjoy and Seed.","torrent":{"xt":"urn:btih:a23ce0cffa517e99f69ebc12076ae58cf7e45a7e","amp;dn":"Muse+-+The+Resistance+2009+FLAC","amp;tr":["udp%3A%2F%2Ftracker.openbittorrent.com%3A80","udp%3A%2F%2Fopen.demonii.com%3A1337","udp%3A%2F%2Ftracker.coppersurfer.tk%3A6969","udp%3A%2F%2Fexodus.desync.com%3A6969"],"infoHash":"a23ce0cffa517e99f69ebc12076ae58cf7e45a7e","infoHashBuffer":{"type":"Buffer","data":[162,60,224,207,250,81,126,153,246,158,188,18,7,106,229,140,247,228,90,126]},"announce":[],"urlList":[]}}